<svg width="1257" height="762" viewBox="0 0 1257 762" fill="none" xmlns="http://www.w3.org/2000/svg">
<g opacity="0.2">
<path d="M1219.82 542.782C1220.85 542.802 1221.9 542.972 1222.97 543.323C1227.29 544.746 1232.06 556.309 1224.59 568.022C1222.57 571.186 1233.56 576.617 1231.54 582.691C1228.83 590.872 1209.79 587.051 1207.02 591.925C1205.61 594.403 1224.47 602.705 1217.89 609.78C1209.58 618.697 1201.25 612.866 1187.58 615C1182.18 615.843 1193.34 628.857 1185.16 633.922C1176.43 639.333 1159.19 634.356 1149.98 629.491C1152.18 626.857 1154.38 624.224 1156.58 621.595C1163.9 623.863 1172.29 625.056 1179.78 624.584C1171.88 623.137 1165.53 621.467 1159.04 618.672C1163.76 613.064 1168.51 607.468 1173.34 601.942C1181.4 603.556 1196.04 605.969 1209.82 604.979C1207.89 604.691 1185.59 601.711 1175.93 598.989C1177.7 596.987 1179.47 594.995 1181.26 593.013C1183.29 590.419 1185.32 587.832 1187.37 585.251C1188.49 583.838 1189.62 582.428 1190.74 581.02L1190.77 581.164C1197.59 581.558 1210.49 581.832 1222.03 578.821C1220.39 578.826 1201.69 579.197 1193.14 578.026C1196.79 573.498 1200.31 569.181 1203.31 565.602C1204.85 563.768 1206.24 562.144 1207.47 560.744L1207.46 560.732C1201.9 565.823 1196.49 571.131 1191.2 576.592C1187.79 571.287 1184 564.199 1182.08 558.949C1181.76 565.372 1185.58 573.531 1188.12 579.801C1183.21 584.966 1178.39 590.255 1173.65 595.614C1169.25 590.369 1164.01 582.42 1161.65 577.303C1162.52 583.001 1168.62 592.001 1171.48 598.08C1165.98 604.352 1160.58 610.708 1155.24 617.068C1152.28 613.244 1149.05 608.255 1147.4 604.534C1147.11 609.275 1150.6 615.321 1152.84 619.908L1152.86 619.905C1150.75 622.419 1148.65 624.931 1146.56 627.436C1145.9 626.973 1145.34 626.524 1144.9 626.103C1138.02 619.415 1136.97 608.669 1141 600.617C1143.74 595.143 1156.34 598.724 1157.9 595.4C1159.89 591.197 1146.62 578.731 1151.75 572.453C1155.35 568.041 1168.16 572.887 1170.4 568.913C1173.97 562.561 1164.24 552.544 1175.16 547.204C1180.95 544.371 1185.31 548.374 1194.48 556.851C1199.13 561.144 1208.07 543.034 1219.38 542.783C1219.53 542.78 1219.68 542.779 1219.82 542.782ZM1144.27 630.799L1147.33 633.279L1139.27 643.22L1136.21 640.74L1144.27 630.799H1144.27Z" fill="#DDA15E"/>
</g>
<g opacity="0.2">
<path d="M78.4752 63.0076C77.5838 63.0246 76.6761 63.1724 75.7527 63.4761C72.0067 64.7087 67.8796 74.7228 74.3487 84.8676C76.0957 87.6071 66.5811 92.3111 68.3235 97.5716C70.6703 104.657 87.1622 101.348 89.562 105.569C90.7821 107.715 74.4487 114.906 80.1532 121.033C87.3431 128.755 94.5634 123.706 106.402 125.554C111.079 126.284 101.409 137.554 108.492 141.941C116.061 146.628 130.988 142.317 138.965 138.104C137.061 135.822 135.155 133.543 133.246 131.265C126.908 133.23 119.641 134.263 113.157 133.854C119.994 132.601 125.493 131.155 131.117 128.734C127.031 123.877 122.914 119.03 118.735 114.245C111.754 115.643 99.0727 117.732 87.1353 116.874C88.8081 116.625 108.121 114.044 116.488 111.687C114.96 109.953 113.422 108.228 111.874 106.512C110.117 104.265 108.353 102.024 106.581 99.7886C105.61 98.5654 104.637 97.344 103.661 96.1246L103.639 96.2492C97.731 96.5902 86.5595 96.8274 76.5666 94.2204C77.9832 94.2242 94.1826 94.5455 101.58 93.5313C98.4259 89.6098 95.3765 85.871 92.7759 82.7713C91.4431 81.1828 90.2387 79.7761 89.1742 78.5638L89.1836 78.5532C93.9959 82.9627 98.6813 87.5601 103.266 92.2896C106.215 87.6946 109.504 81.5566 111.159 77.0093C111.437 82.5722 108.135 89.6382 105.933 95.0689C110.187 99.5419 114.355 104.123 118.46 108.764C122.272 104.222 126.816 97.3369 128.855 92.9054C128.106 97.8401 122.824 105.634 120.342 110.9C125.105 116.331 129.784 121.837 134.412 127.345C136.971 124.033 139.772 119.712 141.199 116.49C141.449 120.595 138.431 125.832 136.483 129.805L136.473 129.802C138.297 131.979 140.113 134.154 141.923 136.324C142.494 135.923 142.985 135.534 143.359 135.17C149.319 129.378 150.229 120.07 146.74 113.097C144.368 108.356 133.46 111.457 132.102 108.579C130.384 104.939 141.87 94.1417 137.434 88.7048C134.316 84.8839 123.217 89.0805 121.28 85.6391C118.184 80.1374 126.61 71.4619 117.157 66.837C112.143 64.3836 108.367 67.8504 100.421 75.1924C96.3982 78.9101 88.6507 63.2256 78.8564 63.0083C78.7293 63.0055 78.6022 63.0052 78.4752 63.0076ZM143.91 139.237L141.261 141.385L148.242 149.994L150.891 147.846L143.911 139.237H143.91Z" fill="#DDA15E"/>
</g>
<g opacity="0.2" clip-path="url(#clip0_87_2)">
<path d="M224.106 664.939C223.452 665.167 222.818 665.496 222.211 665.943C219.745 667.759 219.123 676.147 226.351 682.067C228.303 683.666 222.421 689.439 224.979 692.899C228.425 697.559 239.793 691.127 242.585 693.66C244.005 694.948 233.693 704.207 239.385 707.347C246.559 711.306 250.665 705.833 259.847 704.331C263.475 703.738 259.067 714.394 265.355 715.917C272.073 717.544 282.045 710.751 286.911 705.712C284.954 704.489 282.996 703.268 281.036 702.05C276.835 705.033 271.723 707.554 266.84 708.821C271.582 706.242 275.289 703.844 278.853 700.697C274.663 698.102 270.452 695.522 266.21 693.003C261.398 695.723 252.546 700.333 243.531 702.589C244.705 702.001 258.331 695.423 263.934 691.659C262.387 690.749 260.834 689.849 259.277 688.957C257.437 687.724 255.593 686.497 253.745 685.277C252.732 684.609 251.718 683.944 250.703 683.28L250.718 683.377C246.44 685.059 238.255 687.937 230.251 688.431C231.297 688.091 243.327 684.409 248.54 681.87C245.264 679.74 242.109 677.719 239.44 676.061C238.072 675.212 236.843 674.465 235.765 673.828L235.769 673.818C240.387 675.907 244.957 678.166 249.483 680.546C250.548 676.442 251.49 671.117 251.61 667.361C253.162 671.399 252.435 677.412 252.124 681.951C256.345 684.222 260.53 686.594 264.682 689.025C266.395 684.751 268.082 678.571 268.514 674.808C269.155 678.631 267.144 685.66 266.587 690.146C271.416 693.001 276.201 695.931 280.948 698.875C282.035 695.812 283.056 691.946 283.329 689.223C284.507 692.192 283.547 696.786 283.071 700.189L283.063 700.189C284.936 701.354 286.802 702.52 288.663 703.683C288.987 703.249 289.255 702.843 289.443 702.484C292.439 696.768 290.858 689.68 286.596 685.379C283.699 682.455 276.401 687.382 274.702 685.587C272.554 683.317 278.417 672.571 273.828 669.633C270.603 667.568 263.429 673.35 261.167 671.28C257.551 667.969 261.668 659.529 253.575 658.404C249.281 657.807 247.334 661.279 243.248 668.619C241.179 672.336 231.667 662.637 224.387 664.847C224.293 664.876 224.199 664.906 224.106 664.939ZM290.834 705.351L289.399 707.577L296.634 712.24L298.068 710.015L290.834 705.351L290.834 705.351Z" fill="#DDA15E"/>
</g>
<g opacity="0.2" clip-path="url(#clip1_87_2)">
<path d="M9.61414 470.418C9.32334 471.046 9.11828 471.73 9.01677 472.478C8.60535 475.513 14.1969 481.796 23.4783 480.724C25.9846 480.434 26.0383 488.676 30.3037 489.245C36.0485 490.013 39.3385 477.372 43.1008 477.13C45.0139 477.007 44.4886 490.855 50.7046 488.952C58.5393 486.554 57.465 479.797 62.7762 472.157C64.8741 469.139 69.4607 479.719 74.9296 476.262C80.7728 472.569 82.8321 460.681 82.5986 453.679C80.3586 454.234 78.1192 454.791 75.8805 455.351C75.1004 460.444 73.354 465.869 70.866 470.259C72.3129 465.058 73.1708 460.727 73.3899 455.978C68.6106 457.182 63.8276 458.411 59.0667 459.704C57.6723 465.054 54.8245 474.619 50.1718 482.664C50.5658 481.411 55.3225 467.048 56.5177 460.404C54.7878 460.883 53.0607 461.371 51.3364 461.869C49.1708 462.333 47.0068 462.804 44.8443 463.282C43.6603 463.544 42.4769 463.809 41.2939 464.077L41.3736 464.134C39.6052 468.376 35.977 476.258 30.7628 482.351C31.2465 481.363 36.9722 470.16 38.7763 464.649C34.9666 465.52 31.32 466.38 28.2723 467.143C26.7103 467.535 25.319 467.898 24.1109 468.23L24.1067 468.219C28.8202 466.356 33.6219 464.646 38.4815 463.051C36.2744 459.43 33.105 455.049 30.4914 452.349C34.4707 454.044 38.2835 458.75 41.3281 462.132C45.8965 460.68 50.5111 459.325 55.1461 458.034C53.2685 453.83 50.0039 448.319 47.6018 445.39C50.7933 447.589 54.4427 453.924 57.2769 457.446C62.6874 455.964 68.1208 454.566 73.5388 453.205C72.0951 450.293 70.029 446.87 68.2632 444.779C71.2152 445.999 73.8474 449.884 75.9599 452.594L75.9548 452.6C78.0942 452.066 80.2303 451.537 82.3604 451.009C82.274 450.474 82.1689 449.999 82.0419 449.614C80.0211 443.485 73.8306 439.689 67.7755 439.757C63.6597 439.804 62.1207 448.474 59.6495 448.445C56.5241 448.409 52.8852 436.721 47.5818 437.972C43.8548 438.852 43.0162 448.028 39.9551 448.212C35.0616 448.506 31.8647 439.676 25.4249 444.706C22.0087 447.374 23.1474 451.188 25.5762 459.23C26.806 463.303 13.2221 463.386 9.74412 470.152C9.69898 470.24 9.65564 470.329 9.61414 470.418ZM85.0692 450.611L85.6694 453.19L94.0524 451.239L93.4521 448.66L85.0693 450.61L85.0692 450.611Z" fill="#DDA15E"/>
</g>
<g opacity="0.2">
<path d="M695.823 655.782C696.852 655.802 697.9 655.972 698.966 656.323C703.292 657.746 708.057 669.309 700.587 681.023C698.57 684.186 709.556 689.617 707.544 695.691C704.835 703.872 685.792 700.051 683.021 704.925C681.613 707.403 700.472 715.706 693.885 722.78C685.583 731.697 677.247 725.867 663.577 728C658.177 728.843 669.342 741.857 661.164 746.922C652.425 752.334 635.189 747.356 625.979 742.491C628.177 739.857 630.378 737.225 632.583 734.595C639.9 736.864 648.291 738.056 655.778 737.584C647.883 736.137 641.534 734.468 635.041 731.672C639.758 726.064 644.512 720.468 649.337 714.942C657.398 716.557 672.04 718.969 685.823 717.979C683.892 717.691 661.592 714.711 651.931 711.989C653.696 709.987 655.472 707.995 657.26 706.013C659.288 703.419 661.325 700.832 663.37 698.251C664.491 696.839 665.615 695.428 666.742 694.02L666.767 694.164C673.589 694.558 686.488 694.832 698.026 691.822C696.391 691.826 677.686 692.197 669.145 691.026C672.787 686.498 676.308 682.181 679.311 678.602C680.85 676.768 682.24 675.144 683.469 673.744L683.458 673.732C677.902 678.823 672.492 684.131 667.199 689.592C663.793 684.287 659.995 677.199 658.085 671.949C657.764 678.372 661.577 686.531 664.119 692.801C659.207 697.966 654.394 703.255 649.654 708.614C645.254 703.369 640.006 695.42 637.652 690.303C638.517 696.001 644.616 705.001 647.482 711.081C641.982 717.352 636.579 723.708 631.236 730.068C628.281 726.244 625.047 721.256 623.4 717.535C623.111 722.275 626.595 728.322 628.845 732.909L628.856 732.905C626.751 735.419 624.654 737.931 622.563 740.437C621.904 739.973 621.337 739.524 620.905 739.103C614.023 732.415 612.973 721.669 617.002 713.617C619.74 708.143 632.335 711.724 633.904 708.4C635.887 704.197 622.624 691.731 627.747 685.453C631.346 681.041 644.162 685.887 646.398 681.913C649.973 675.561 640.245 665.544 651.159 660.204C656.949 657.371 661.308 661.374 670.483 669.851C675.128 674.144 684.074 656.034 695.383 655.783C695.529 655.78 695.676 655.779 695.823 655.782ZM620.269 743.799L623.327 746.279L615.267 756.22L612.209 753.74L620.268 743.799H620.269Z" fill="#DDA15E"/>
</g>
<g opacity="0.2">
<path d="M1074.19 304.367C1073.72 304.358 1073.24 304.28 1072.76 304.121C1070.79 303.473 1068.62 298.208 1072.02 292.874C1072.94 291.433 1067.93 288.96 1068.85 286.194C1070.08 282.469 1078.76 284.209 1080.02 281.99C1080.66 280.861 1072.07 277.08 1075.07 273.859C1078.85 269.799 1082.65 272.454 1088.87 271.482C1091.33 271.098 1086.25 265.172 1089.97 262.866C1093.95 260.402 1101.8 262.668 1105.99 264.883C1104.99 266.083 1103.99 267.282 1102.98 268.479C1099.65 267.446 1095.83 266.903 1092.42 267.118C1096.02 267.777 1098.91 268.537 1101.87 269.81C1099.72 272.364 1097.55 274.912 1095.36 277.428C1091.69 276.693 1085.02 275.595 1078.74 276.045C1079.62 276.177 1089.78 277.533 1094.17 278.773C1093.37 279.684 1092.56 280.591 1091.75 281.494C1090.82 282.675 1089.9 283.853 1088.97 285.029C1088.45 285.672 1087.94 286.314 1087.43 286.955L1087.42 286.89C1084.31 286.71 1078.44 286.586 1073.18 287.956C1073.93 287.954 1082.45 287.785 1086.34 288.319C1084.68 290.38 1083.07 292.346 1081.71 293.976C1081.01 294.811 1080.37 295.551 1079.81 296.188L1079.82 296.194C1082.35 293.875 1084.81 291.458 1087.22 288.971C1088.77 291.387 1090.5 294.615 1091.37 297.005C1091.52 294.081 1089.78 290.365 1088.62 287.51C1090.86 285.158 1093.05 282.75 1095.21 280.31C1097.21 282.698 1099.6 286.318 1100.68 288.648C1100.28 286.053 1097.51 281.955 1096.2 279.187C1098.7 276.331 1101.16 273.436 1103.6 270.54C1104.94 272.282 1106.42 274.553 1107.17 276.248C1107.3 274.089 1105.71 271.336 1104.69 269.247L1104.68 269.248C1105.64 268.104 1106.6 266.96 1107.55 265.819C1107.85 266.03 1108.11 266.235 1108.3 266.426C1111.44 269.472 1111.91 274.365 1110.08 278.032C1108.83 280.524 1103.1 278.894 1102.38 280.407C1101.48 282.321 1107.52 287.998 1105.19 290.856C1103.55 292.865 1097.71 290.659 1096.69 292.468C1095.07 295.361 1099.5 299.922 1094.53 302.354C1091.89 303.644 1089.9 301.821 1085.73 297.961C1083.61 296.006 1079.54 304.252 1074.39 304.367C1074.32 304.368 1074.25 304.368 1074.19 304.367ZM1108.59 264.288L1107.2 263.159L1110.87 258.632L1112.26 259.761L1108.59 264.288H1108.59Z" fill="#DDA15E"/>
</g>
<g opacity="0.2">
<path d="M1215.19 2.63292C1214.72 2.64188 1214.24 2.71958 1213.76 2.87925C1211.79 3.52731 1209.62 8.79246 1213.02 14.1263C1213.94 15.5667 1208.93 18.0399 1209.85 20.8058C1211.08 24.531 1219.76 22.7913 1221.02 25.0104C1221.66 26.1387 1213.07 29.9195 1216.07 33.141C1219.85 37.2014 1223.65 34.5464 1229.87 35.5181C1232.33 35.9019 1227.25 41.8276 1230.97 44.1341C1234.95 46.5983 1242.8 44.3319 1246.99 42.1166C1245.99 40.9169 1244.99 39.7183 1243.98 38.5209C1240.65 39.5539 1236.83 40.0971 1233.42 39.8819C1237.02 39.223 1239.91 38.4629 1242.87 37.19C1240.72 34.6363 1238.55 32.088 1236.36 29.572C1232.69 30.307 1226.02 31.4054 1219.74 30.9546C1220.62 30.8235 1230.78 29.4667 1235.17 28.2272C1234.37 27.3156 1233.56 26.4085 1232.75 25.5061C1231.82 24.3248 1230.9 23.1466 1229.97 21.9714C1229.45 21.3283 1228.94 20.6861 1228.43 20.0449L1228.42 20.1105C1225.31 20.2898 1219.44 20.4145 1214.18 19.0438C1214.93 19.0458 1223.45 19.2147 1227.34 18.6815C1225.68 16.6197 1224.07 14.6539 1222.71 13.0242C1222.01 12.1889 1221.37 11.4493 1220.81 10.8119L1220.82 10.8064C1223.35 13.1248 1225.81 15.542 1228.22 18.0286C1229.77 15.6127 1231.5 12.3855 1232.37 9.99465C1232.52 12.9195 1230.78 16.6346 1229.62 19.4899C1231.86 21.8417 1234.05 24.2502 1236.21 26.6904C1238.21 24.3021 1240.6 20.6823 1241.68 18.3524C1241.28 20.9469 1238.51 25.0449 1237.2 27.8135C1239.7 30.6692 1242.16 33.5636 1244.6 36.4596C1245.94 34.7184 1247.42 32.4467 1248.17 30.7523C1248.3 32.911 1246.71 35.6643 1245.69 37.753L1245.68 37.7516C1246.64 38.8961 1247.6 40.04 1248.55 41.181C1248.85 40.9698 1249.11 40.7653 1249.3 40.5738C1252.44 37.5285 1252.91 32.6351 1251.08 28.9683C1249.83 26.476 1244.1 28.1063 1243.38 26.5931C1242.48 24.6792 1248.52 19.0024 1246.19 16.1438C1244.55 14.1349 1238.71 16.3414 1237.69 14.532C1236.07 11.6393 1240.5 7.07799 1235.53 4.64632C1232.89 3.35638 1230.9 5.17913 1226.73 9.0394C1224.61 10.994 1220.54 2.74757 1215.39 2.63332C1215.32 2.63181 1215.25 2.63168 1215.19 2.63292ZM1249.59 42.7122L1248.2 43.8414L1251.87 48.3681L1253.26 47.2389L1249.59 42.7122H1249.59Z" fill="#DDA15E"/>
</g>
<defs>
<clipPath id="clip0_87_2">
<rect width="75.323" height="75.323" fill="white" transform="translate(210 665.473) rotate(-18.157)"/>
</clipPath>
<clipPath id="clip1_87_2">
<rect width="75.323" height="75.323" fill="white" transform="translate(0.182617 480.921) rotate(-64.066)"/>
</clipPath>
</defs>
</svg>
